# Blender v2.80 (sub 45) OBJ File: 'bolt.blend'
# www.blender.org
mtllib bolt.mtl
o Cylinder
v 0.000000 -0.488469 2.502294
v 0.000000 -0.511671 -2.497653
v 0.097545 -0.478860 2.502249
v 0.097545 -0.502063 -2.497697
v 0.191342 -0.450403 2.502117
v 0.191342 -0.473606 -2.497829
v 0.277785 -0.404192 2.501903
v 0.277785 -0.427394 -2.498044
v 0.353553 -0.342001 2.501614
v 0.353553 -0.365204 -2.498332
v 0.415735 -0.266223 2.501262
v 0.415735 -0.289425 -2.498684
v 0.461940 -0.179767 2.500861
v 0.461940 -0.202970 -2.499085
v 0.490393 -0.085957 2.500426
v 0.490393 -0.109160 -2.499520
v 0.500000 0.011601 2.499973
v 0.522597 -0.036000 -2.411479
v 0.490393 0.109160 2.499520
v 0.510199 0.089898 -2.412063
v 0.461940 0.202970 2.499085
v 0.473481 0.210957 -2.412625
v 0.415735 0.289425 2.498684
v 0.415735 0.266223 -2.501262
v 0.353553 0.365204 2.498332
v 0.353553 0.342001 -2.501614
v 0.277785 0.427394 2.498044
v 0.277785 0.404192 -2.501903
v 0.191342 0.473606 2.497829
v 0.191342 0.450403 -2.502117
v 0.097545 0.502063 2.497697
v 0.097545 0.478860 -2.502249
v -0.000000 0.511671 2.497653
v -0.000000 0.488469 -2.502294
v -0.097545 0.502063 2.497697
v -0.097545 0.478860 -2.502249
v -0.191342 0.473606 2.497829
v -0.191342 0.450403 -2.502117
v -0.277785 0.427394 2.498044
v -0.277785 0.404191 -2.501903
v -0.353554 0.365204 2.498332
v -0.353554 0.342001 -2.501614
v -0.415735 0.289425 2.498684
v -0.415735 0.266222 -2.501262
v -0.461940 0.202969 2.499085
v -0.473481 0.210956 -2.412625
v -0.490393 0.109160 2.499520
v -0.510199 0.089897 -2.412063
v -0.500000 0.011601 2.499973
v -0.522597 -0.036000 -2.411479
v -0.490393 -0.085958 2.500426
v -0.490393 -0.109161 -2.499520
v -0.461940 -0.179768 2.500861
v -0.461940 -0.202970 -2.499085
v -0.415734 -0.266223 2.501262
v -0.415734 -0.289426 -2.498684
v -0.353553 -0.342002 2.501614
v -0.353553 -0.365205 -2.498332
v -0.277785 -0.404192 2.501903
v -0.277785 -0.427395 -2.498044
v -0.191341 -0.450403 2.502117
v -0.191341 -0.473606 -2.497829
v -0.097544 -0.478860 2.502249
v -0.097544 -0.502063 -2.497697
v 0.072049 -0.373865 -3.106816
v 0.000000 -0.380962 -3.106783
v 0.141329 -0.352846 -3.106913
v 0.205177 -0.318714 -3.107072
v 0.261141 -0.272779 -3.107285
v 0.307069 -0.216807 -3.107545
v 0.341197 -0.152950 -3.107841
v 0.362213 -0.083660 -3.108162
v 0.353944 -0.036000 -3.196764
v 0.344786 0.056990 -3.197196
v 0.317666 0.146407 -3.197611
v 0.307069 0.193605 -3.109449
v 0.261141 0.249576 -3.109709
v 0.205177 0.295511 -3.109922
v 0.141328 0.329644 -3.110080
v 0.072049 0.350662 -3.110178
v -0.000000 0.357760 -3.110211
v -0.072049 0.350662 -3.110178
v -0.141329 0.329644 -3.110080
v -0.205177 0.295511 -3.109922
v -0.261141 0.249576 -3.109709
v -0.307070 0.193604 -3.109449
v -0.317666 0.146407 -3.197611
v -0.344786 0.056990 -3.197196
v -0.353944 -0.036000 -3.196764
v -0.362213 -0.083661 -3.108162
v -0.341197 -0.152950 -3.107841
v -0.307069 -0.216808 -3.107545
v -0.261141 -0.272779 -3.107285
v -0.205177 -0.318714 -3.107072
v -0.141328 -0.352847 -3.106913
v -0.072048 -0.373865 -3.106816
v 1.051857 0.194920 -3.047955
v 1.063117 0.080575 -3.047424
v 1.018509 0.304871 -3.048465
v -1.051857 0.194919 -3.047955
v -1.018509 0.304870 -3.048465
v -1.063118 0.080574 -3.047424
v 0.901623 0.165032 -3.761043
v 0.909940 0.080575 -3.760651
v 0.876991 0.246244 -3.761420
v -0.901623 0.165032 -3.761043
v -0.876991 0.246243 -3.761420
v -0.909940 0.080574 -3.760651
v 0.000000 -0.374648 2.781218
v 0.075596 -0.367201 2.781183
v 0.148287 -0.345147 2.781081
v 0.215279 -0.309334 2.780915
v 0.273998 -0.261138 2.780691
v 0.322188 -0.202411 2.780418
v 0.357996 -0.135409 2.780107
v 0.380046 -0.062708 2.779770
v 0.387492 0.012898 2.779419
v 0.380046 0.088505 2.779068
v 0.357996 0.161205 2.778731
v 0.322188 0.228207 2.778420
v 0.273998 0.286934 2.778147
v 0.215279 0.335131 2.777924
v 0.148287 0.370944 2.777758
v 0.075596 0.392997 2.777655
v -0.000000 0.400444 2.777621
v -0.075596 0.392997 2.777655
v -0.148287 0.370944 2.777758
v -0.215279 0.335131 2.777924
v -0.273998 0.286934 2.778147
v -0.322188 0.228207 2.778420
v -0.357996 0.161205 2.778731
v -0.380046 0.088504 2.779068
v -0.387492 0.012898 2.779419
v -0.380046 -0.062709 2.779770
v -0.357995 -0.135410 2.780107
v -0.322187 -0.202411 2.780418
v -0.273998 -0.261138 2.780691
v -0.215278 -0.309335 2.780915
v -0.148286 -0.345148 2.781081
v -0.075595 -0.367201 2.781183
v 0.000000 -0.183572 2.997741
v 0.038521 -0.179778 2.997724
v 0.075562 -0.168540 2.997672
v 0.109698 -0.150291 2.997587
v 0.139619 -0.125732 2.997473
v 0.164175 -0.095807 2.997334
v 0.182422 -0.061665 2.997176
v 0.193658 -0.024619 2.997004
v 0.197452 0.013907 2.996825
v 0.193658 0.052433 2.996646
v 0.182422 0.089479 2.996474
v 0.164175 0.123621 2.996316
v 0.139619 0.153546 2.996177
v 0.109698 0.178105 2.996063
v 0.075562 0.196354 2.995978
v 0.038521 0.207592 2.995926
v 0.000000 0.211386 2.995908
v -0.038521 0.207592 2.995926
v -0.075561 0.196354 2.995978
v -0.109698 0.178105 2.996063
v -0.139619 0.153546 2.996177
v -0.164175 0.123620 2.996316
v -0.182421 0.089479 2.996474
v -0.193657 0.052433 2.996646
v -0.197451 0.013907 2.996825
v -0.193657 -0.024620 2.997004
v -0.182421 -0.061665 2.997176
v -0.164175 -0.095807 2.997334
v -0.139619 -0.125732 2.997473
v -0.109698 -0.150291 2.997587
v -0.075561 -0.168540 2.997672
v -0.038520 -0.179778 2.997724
v 0.000000 -0.052464 3.185546
v 0.013117 -0.051172 3.185540
v 0.025730 -0.047346 3.185522
v 0.037355 -0.041131 3.185493
v 0.047543 -0.032769 3.185455
v 0.055905 -0.022578 3.185407
v 0.062118 -0.010952 3.185354
v 0.065944 0.001662 3.185295
v 0.067236 0.014781 3.185234
v 0.065944 0.027900 3.185173
v 0.062118 0.040515 3.185115
v 0.055905 0.052141 3.185061
v 0.047543 0.062331 3.185013
v 0.037355 0.070694 3.184975
v 0.025730 0.076908 3.184946
v 0.013117 0.080735 3.184928
v 0.000000 0.082027 3.184922
v -0.013117 0.080735 3.184928
v -0.025730 0.076908 3.184946
v -0.037354 0.070694 3.184975
v -0.047543 0.062331 3.185013
v -0.055905 0.052141 3.185061
v -0.062118 0.040515 3.185115
v -0.065944 0.027900 3.185173
v -0.067236 0.014781 3.185234
v -0.065944 0.001662 3.185295
v -0.062118 -0.010953 3.185354
v -0.055905 -0.022578 3.185407
v -0.047543 -0.032769 3.185455
v -0.037354 -0.041131 3.185493
v -0.025730 -0.047346 3.185522
v -0.013117 -0.051172 3.185540
vt 1.000000 0.500000
vt 1.000000 1.000000
vt 0.968750 1.000000
vt 0.968750 0.500000
vt 0.937500 1.000000
vt 0.937500 0.500000
vt 0.906250 1.000000
vt 0.906250 0.500000
vt 0.875000 1.000000
vt 0.875000 0.500000
vt 0.843750 1.000000
vt 0.843750 0.500000
vt 0.812500 1.000000
vt 0.812500 0.500000
vt 0.781250 1.000000
vt 0.781250 0.500000
vt 0.750000 1.000000
vt 0.750000 0.500000
vt 0.718750 1.000000
vt 0.718750 0.500000
vt 0.687500 1.000000
vt 0.687500 0.500000
vt 0.656250 1.000000
vt 0.656250 0.500000
vt 0.625000 1.000000
vt 0.625000 0.500000
vt 0.593750 1.000000
vt 0.593750 0.500000
vt 0.562500 1.000000
vt 0.562500 0.500000
vt 0.531250 1.000000
vt 0.531250 0.500000
vt 0.500000 1.000000
vt 0.500000 0.500000
vt 0.468750 1.000000
vt 0.468750 0.500000
vt 0.437500 1.000000
vt 0.437500 0.500000
vt 0.406250 1.000000
vt 0.406250 0.500000
vt 0.375000 1.000000
vt 0.375000 0.500000
vt 0.343750 1.000000
vt 0.343750 0.500000
vt 0.312500 1.000000
vt 0.312500 0.500000
vt 0.281250 1.000000
vt 0.281250 0.500000
vt 0.250000 1.000000
vt 0.250000 0.500000
vt 0.218750 1.000000
vt 0.218750 0.500000
vt 0.187500 1.000000
vt 0.187500 0.500000
vt 0.156250 1.000000
vt 0.156250 0.500000
vt 0.125000 1.000000
vt 0.125000 0.500000
vt 0.093750 1.000000
vt 0.093750 0.500000
vt 0.062500 1.000000
vt 0.062500 0.500000
vt 0.906250 1.000000
vt 0.875000 1.000000
vt 0.031250 1.000000
vt 0.031250 0.500000
vt 0.000000 1.000000
vt 0.000000 0.500000
vt 0.593750 0.500000
vt 0.625000 0.500000
vt 0.296822 0.485388
vt 0.250000 0.490000
vt 0.203179 0.485389
vt 0.158156 0.471731
vt 0.116663 0.449553
vt 0.080295 0.419706
vt 0.050447 0.383337
vt 0.028269 0.341844
vt 0.014612 0.296822
vt 0.010000 0.250000
vt 0.014611 0.203179
vt 0.028269 0.158156
vt 0.050447 0.116663
vt 0.080294 0.080294
vt 0.116663 0.050447
vt 0.158156 0.028269
vt 0.203178 0.014612
vt 0.250000 0.010000
vt 0.296822 0.014612
vt 0.341844 0.028269
vt 0.383337 0.050447
vt 0.419706 0.080294
vt 0.449553 0.116663
vt 0.471731 0.158156
vt 0.485388 0.203178
vt 0.490000 0.250000
vt 0.485388 0.296822
vt 0.471731 0.341844
vt 0.449553 0.383337
vt 0.419706 0.419706
vt 0.383337 0.449553
vt 0.341844 0.471731
vt 0.625000 1.000000
vt 0.593750 1.000000
vt 0.343750 1.000000
vt 0.312500 1.000000
vt 0.062500 1.000000
vt 0.031250 1.000000
vt 0.250000 1.000000
vt 0.250000 1.000000
vt 0.250000 1.000000
vt 0.468750 1.000000
vt 0.437500 1.000000
vt 0.187500 1.000000
vt 0.156250 1.000000
vt 0.843750 1.000000
vt 0.562500 1.000000
vt 0.750000 1.000000
vt 0.718750 1.000000
vt 1.000000 1.000000
vt 0.968750 1.000000
vt 0.000000 1.000000
vt 0.485388 0.203178
vt 0.490000 0.250000
vt 0.406250 1.000000
vt 0.125000 1.000000
vt 0.812500 1.000000
vt 0.531250 1.000000
vt 0.687500 1.000000
vt 0.937500 1.000000
vt 0.687500 1.000000
vt 0.656250 1.000000
vt 0.375000 1.000000
vt 0.093750 1.000000
vt 0.781250 1.000000
vt 0.500000 1.000000
vt 0.218750 1.000000
vt 0.750000 1.000000
vt 0.750000 1.000000
vt 0.718750 1.000000
vt 0.281250 1.000000
vt 0.312500 1.000000
vt 0.312500 1.000000
vt 0.281250 1.000000
vt 0.687500 1.000000
vt 0.014611 0.203179
vt 0.028269 0.158156
vt 0.471731 0.158156
vt 0.010000 0.250000
vt 0.562500 0.500000
vt 0.531250 0.500000
vt 0.531250 0.500000
vt 0.562500 0.500000
vt 0.312500 0.500000
vt 0.343750 0.500000
vt 0.031250 0.500000
vt 0.062500 0.500000
vt 0.718750 0.500000
vt 0.750000 0.500000
vt 0.437500 0.500000
vt 0.468750 0.500000
vt 0.156250 0.500000
vt 0.187500 0.500000
vt 0.843750 0.500000
vt 0.875000 0.500000
vt 0.281250 0.500000
vt 0.968750 0.500000
vt 1.000000 0.500000
vt 0.000000 0.500000
vt 0.687500 0.500000
vt 0.406250 0.500000
vt 0.125000 0.500000
vt 0.812500 0.500000
vt 0.250000 0.500000
vt 0.937500 0.500000
vt 0.656250 0.500000
vt 0.375000 0.500000
vt 0.093750 0.500000
vt 0.781250 0.500000
vt 0.500000 0.500000
vt 0.218750 0.500000
vt 0.906250 0.500000
vt 0.468750 0.500000
vt 0.437500 0.500000
vt 0.437500 0.500000
vt 0.468750 0.500000
vt 0.937500 0.500000
vt 0.968750 0.500000
vt 0.093750 0.500000
vt 0.125000 0.500000
vt 0.500000 0.500000
vt 0.906250 0.500000
vt 0.062500 0.500000
vt 0.875000 0.500000
vt 0.031250 0.500000
vt 0.843750 0.500000
vt 0.000000 0.500000
vt 0.406250 0.500000
vt 0.812500 0.500000
vt 0.375000 0.500000
vt 0.781250 0.500000
vt 0.343750 0.500000
vt 0.750000 0.500000
vt 0.312500 0.500000
vt 0.718750 0.500000
vt 0.281250 0.500000
vt 0.687500 0.500000
vt 0.250000 0.500000
vt 0.656250 0.500000
vt 0.218750 0.500000
vt 0.625000 0.500000
vt 0.187500 0.500000
vt 0.593750 0.500000
vt 0.156250 0.500000
vt 1.000000 0.500000
vt 0.750000 0.490000
vt 0.796822 0.485388
vt 0.841844 0.471731
vt 0.883337 0.449553
vt 0.919706 0.419706
vt 0.949553 0.383337
vt 0.971731 0.341844
vt 0.985388 0.296822
vt 0.990000 0.250000
vt 0.985388 0.203178
vt 0.971731 0.158156
vt 0.949553 0.116663
vt 0.919706 0.080294
vt 0.883337 0.050447
vt 0.841844 0.028269
vt 0.796822 0.014612
vt 0.750000 0.010000
vt 0.703178 0.014612
vt 0.658156 0.028269
vt 0.616663 0.050447
vt 0.580294 0.080294
vt 0.550447 0.116663
vt 0.528269 0.158156
vt 0.514611 0.203179
vt 0.510000 0.250000
vt 0.514612 0.296822
vt 0.528269 0.341844
vt 0.550447 0.383337
vt 0.580295 0.419706
vt 0.616663 0.449553
vt 0.658156 0.471731
vt 0.703179 0.485389
vt 0.843750 0.500000
vt 0.875000 0.500000
vt 0.000000 0.500000
vt 0.031250 0.500000
vt 0.406250 0.500000
vt 0.812500 0.500000
vt 0.375000 0.500000
vt 0.781250 0.500000
vt 0.343750 0.500000
vt 0.750000 0.500000
vt 0.312500 0.500000
vt 0.718750 0.500000
vt 0.281250 0.500000
vt 0.687500 0.500000
vt 0.250000 0.500000
vt 0.656250 0.500000
vt 0.218750 0.500000
vt 0.625000 0.500000
vt 0.187500 0.500000
vt 0.593750 0.500000
vt 0.156250 0.500000
vt 0.562500 0.500000
vt 0.968750 0.500000
vt 1.000000 0.500000
vt 0.125000 0.500000
vt 0.531250 0.500000
vt 0.937500 0.500000
vt 0.093750 0.500000
vt 0.500000 0.500000
vt 0.906250 0.500000
vt 0.062500 0.500000
vn 0.0980 -0.9952 0.0046
vn 0.2903 -0.9569 0.0044
vn 0.4715 -0.8819 0.0041
vn 0.6345 -0.7730 0.0036
vn 0.7731 -0.6343 0.0029
vn 0.8820 -0.4713 0.0022
vn 0.9570 -0.2902 0.0013
vn 0.9708 -0.2398 0.0039
vn 0.9952 0.0980 0.0036
vn 0.9569 0.2903 0.0027
vn 0.8063 0.5915 0.0000
vn 0.7731 0.6343 -0.0029
vn 0.6345 0.7730 -0.0036
vn 0.4715 0.8819 -0.0041
vn 0.2903 0.9569 -0.0044
vn 0.0980 0.9952 -0.0046
vn -0.0980 0.9952 -0.0046
vn -0.2903 0.9569 -0.0044
vn -0.4715 0.8819 -0.0041
vn -0.6345 0.7730 -0.0036
vn -0.7731 0.6343 -0.0029
vn -0.8063 0.5915 0.0000
vn -0.9569 0.2903 0.0027
vn -0.9952 0.0980 0.0036
vn -0.9708 -0.2398 0.0039
vn -0.9570 -0.2902 0.0013
vn -0.8820 -0.4713 0.0022
vn -0.7731 -0.6343 0.0029
vn -0.6344 -0.7730 0.0036
vn -0.4715 -0.8819 0.0041
vn 0.6200 -0.7563 -0.2089
vn -0.2903 -0.9569 0.0044
vn -0.0980 -0.9952 0.0046
vn 0.5889 0.7192 0.3686
vn -0.0000 -0.0240 -0.9997
vn 0.6209 0.7555 -0.2092
vn -0.8142 0.5421 -0.2079
vn -0.2836 -0.9359 -0.2088
vn -0.1696 -0.9848 -0.0364
vn -0.2842 0.9357 -0.2092
vn -0.8621 -0.4617 -0.2089
vn 0.7555 -0.6209 -0.2089
vn 0.4614 0.8622 -0.2092
vn 0.7527 0.0772 0.6539
vn 0.0958 -0.9732 -0.2088
vn -0.0958 -0.9732 -0.2088
vn -0.7027 -0.0725 -0.7078
vn -0.4614 0.8622 -0.2092
vn -0.7555 -0.6209 -0.2089
vn 0.8621 -0.4617 -0.2089
vn 0.2842 0.9357 -0.2092
vn 0.7237 0.2225 0.6532
vn 0.2837 -0.9359 -0.2088
vn 0.8142 0.5421 -0.2079
vn -0.6209 0.7555 -0.2092
vn -0.6200 -0.7563 -0.2089
vn 0.9356 -0.2847 -0.2090
vn 0.0960 0.9731 -0.2092
vn -0.9593 -0.1910 -0.2078
vn 0.4606 -0.8627 -0.2089
vn 0.7564 0.6197 -0.2091
vn -0.7564 0.6197 -0.2091
vn -0.4606 -0.8627 -0.2089
vn 0.9593 -0.1910 -0.2078
vn -0.0960 0.9731 -0.2092
vn -0.9356 -0.2847 -0.2090
vn 0.9733 0.0949 -0.2090
vn -0.9361 0.2829 -0.2091
vn 0.9361 0.2829 -0.2091
vn -0.9733 0.0949 -0.2090
vn 0.6757 -0.2082 -0.7072
vn -0.6757 -0.2082 -0.7072
vn -0.7527 0.0772 0.6539
vn 0.1696 -0.9848 -0.0364
vn 0.7027 -0.0725 -0.7078
vn -0.7237 0.2225 0.6532
vn 0.2127 0.9764 -0.0381
vn -0.2127 0.9764 -0.0381
vn 0.2190 0.7250 0.6530
vn -0.8187 0.4392 0.3699
vn -0.2695 -0.8865 0.3761
vn 0.9238 0.0927 0.3715
vn -0.2695 0.8900 0.3678
vn -0.8187 -0.4358 0.3740
vn 0.7176 -0.5871 0.3747
vn 0.4376 0.8203 0.3682
vn -0.8883 0.2711 0.3707
vn 0.0910 -0.9220 0.3763
vn -0.0910 -0.9220 0.3763
vn 0.8883 0.2711 0.3707
vn -0.4376 0.8203 0.3682
vn -0.7176 -0.5871 0.3747
vn 0.8187 -0.4358 0.3740
vn 0.2695 0.8900 0.3678
vn -0.9238 0.0927 0.3715
vn 0.2695 -0.8865 0.3761
vn 0.8187 0.4392 0.3699
vn -0.5889 0.7192 0.3686
vn -0.5889 -0.7158 0.3753
vn 0.8883 -0.2677 0.3732
vn 0.0910 0.9255 0.3677
vn -0.9238 -0.0892 0.3723
vn 0.4376 -0.8169 0.3758
vn 0.7176 0.5905 0.3692
vn -0.7176 0.5905 0.3692
vn -0.4376 -0.8169 0.3758
vn 0.9238 -0.0892 0.3723
vn -0.0910 0.9255 0.3677
vn -0.8883 -0.2677 0.3732
vn 0.5889 -0.7158 0.3753
vn -0.2392 0.7910 0.5631
vn 0.2190 -0.7189 0.6597
vn -0.4787 -0.5801 0.6591
vn 0.0740 0.7538 0.6529
vn 0.3557 -0.6623 0.6595
vn -0.3557 -0.6623 0.6595
vn -0.0740 0.7538 0.6529
vn 0.4787 -0.5801 0.6591
vn -0.2190 -0.7189 0.6597
vn -0.2190 0.7250 0.6530
vn 0.5832 -0.4755 0.6586
vn -0.0740 -0.7477 0.6599
vn -0.3557 0.6684 0.6533
vn 0.6654 -0.3526 0.6580
vn -0.4787 0.5862 0.6536
vn 0.7220 -0.2159 0.6573
vn -0.5832 0.4816 0.6541
vn 0.7508 -0.0709 0.6567
vn -0.6654 0.3587 0.6547
vn 0.7508 0.0770 0.6560
vn -0.7220 0.2220 0.6553
vn 0.7220 0.2220 0.6553
vn -0.7508 0.0770 0.6560
vn 0.6654 0.3587 0.6547
vn -0.7508 -0.0709 0.6567
vn 0.5832 0.4816 0.6541
vn -0.7220 -0.2159 0.6573
vn 0.4787 0.5862 0.6536
vn -0.6654 -0.3526 0.6580
vn 0.3557 0.6684 0.6533
vn 0.0740 -0.7477 0.6599
vn -0.5832 -0.4755 0.6586
vn 0.0000 0.0046 1.0000
vn 0.6369 -0.5200 0.5691
vn -0.0808 -0.8173 0.5706
vn -0.3884 0.7292 0.5634
vn 0.7267 -0.3857 0.5685
vn -0.5227 0.6395 0.5638
vn 0.7885 -0.2365 0.5678
vn -0.6369 0.5253 0.5643
vn 0.8200 -0.0781 0.5671
vn -0.7267 0.3910 0.5649
vn 0.8200 0.0834 0.5663
vn -0.7885 0.2418 0.5656
vn 0.7885 0.2418 0.5656
vn -0.8200 0.0834 0.5663
vn 0.7267 0.3910 0.5649
vn -0.8200 -0.0781 0.5671
vn 0.6369 0.5253 0.5643
vn -0.7885 -0.2365 0.5678
vn 0.5227 0.6395 0.5638
vn -0.7267 -0.3857 0.5685
vn 0.3884 0.7292 0.5634
vn 0.0808 -0.8173 0.5706
vn -0.6369 -0.5200 0.5691
vn 0.2392 0.7910 0.5631
vn 0.2392 -0.7858 0.5704
vn -0.5227 -0.6342 0.5697
vn 0.0808 0.8225 0.5629
vn 0.3884 -0.7240 0.5701
vn -0.3884 -0.7240 0.5701
vn -0.0808 0.8225 0.5629
vn 0.5227 -0.6342 0.5697
vn -0.2392 -0.7858 0.5704
usemtl None
s off
f 1/1/1 2/2/1 4/3/1 3/4/1
f 3/4/2 4/3/2 6/5/2 5/6/2
f 5/6/3 6/5/3 8/7/3 7/8/3
f 7/8/4 8/7/4 10/9/4 9/10/4
f 9/10/5 10/9/5 12/11/5 11/12/5
f 11/12/6 12/11/6 14/13/6 13/14/6
f 13/14/7 14/13/7 16/15/7 15/16/7
f 15/16/8 16/15/8 18/17/8 17/18/8
f 17/18/9 18/17/9 20/19/9 19/20/9
f 19/20/10 20/19/10 22/21/10 21/22/10
f 21/22/11 22/21/11 24/23/11 23/24/11
f 23/24/12 24/23/12 26/25/12 25/26/12
f 25/26/13 26/25/13 28/27/13 27/28/13
f 27/28/14 28/27/14 30/29/14 29/30/14
f 29/30/15 30/29/15 32/31/15 31/32/15
f 31/32/16 32/31/16 34/33/16 33/34/16
f 33/34/17 34/33/17 36/35/17 35/36/17
f 35/36/18 36/35/18 38/37/18 37/38/18
f 37/38/19 38/37/19 40/39/19 39/40/19
f 39/40/20 40/39/20 42/41/20 41/42/20
f 41/42/21 42/41/21 44/43/21 43/44/21
f 43/44/22 44/43/22 46/45/22 45/46/22
f 45/46/23 46/45/23 48/47/23 47/48/23
f 47/48/24 48/47/24 50/49/24 49/50/24
f 49/50/25 50/49/25 52/51/25 51/52/25
f 51/52/26 52/51/26 54/53/26 53/54/26
f 53/54/27 54/53/27 56/55/27 55/56/27
f 55/56/28 56/55/28 58/57/28 57/58/28
f 57/58/29 58/57/29 60/59/29 59/60/29
f 59/60/30 60/59/30 62/61/30 61/62/30
f 10/9/31 8/7/31 68/63/31 69/64/31
f 61/62/32 62/61/32 64/65/32 63/66/32
f 63/66/33 64/65/33 2/67/33 1/68/33
f 25/26/34 27/28/34 122/69/34 121/70/34
f 65/71/35 66/72/35 96/73/35 95/74/35 94/75/35 93/76/35 92/77/35 91/78/35 90/79/35 89/80/35 88/81/35 87/82/35 86/83/35 85/84/35 84/85/35 83/86/35 82/87/35 81/88/35 80/89/35 79/90/35 78/91/35 77/92/35 76/93/35 75/94/35 74/95/35 73/96/35 72/97/35 71/98/35 70/99/35 69/100/35 68/101/35 67/102/35
f 28/27/36 26/25/36 77/103/36 78/104/36
f 46/45/37 44/43/37 86/105/37 87/106/37
f 64/65/38 62/61/38 95/107/38 96/108/38
f 89/109/39 50/49/39 102/110/39 108/111/39
f 38/37/40 36/35/40 82/112/40 83/113/40
f 56/55/41 54/53/41 91/114/41 92/115/41
f 12/11/42 10/9/42 69/64/42 70/116/42
f 30/29/43 28/27/43 78/104/43 79/117/43
f 20/19/44 18/17/44 98/118/44 97/119/44
f 4/3/45 2/2/45 66/120/45 65/121/45
f 2/67/46 64/65/46 96/108/46 66/122/46
f 73/96/47 74/95/47 103/123/47 104/124/47
f 40/39/48 38/37/48 83/113/48 84/125/48
f 58/57/49 56/55/49 92/115/49 93/126/49
f 14/13/50 12/11/50 70/116/50 71/127/50
f 32/31/51 30/29/51 79/117/51 80/128/51
f 22/21/52 20/19/52 97/119/52 99/129/52
f 6/5/53 4/3/53 65/121/53 67/130/53
f 24/23/54 22/21/54 75/131/54 76/132/54
f 42/41/55 40/39/55 84/125/55 85/133/55
f 60/59/56 58/57/56 93/126/56 94/134/56
f 16/15/57 14/13/57 71/127/57 72/135/57
f 34/33/58 32/31/58 80/128/58 81/136/58
f 52/51/59 50/49/59 89/109/59 90/137/59
f 8/7/60 6/5/60 67/130/60 68/63/60
f 26/25/61 24/23/61 76/132/61 77/103/61
f 44/43/62 42/41/62 85/133/62 86/105/62
f 62/61/63 60/59/63 94/134/63 95/107/63
f 18/17/64 16/15/64 72/135/64 73/138/64
f 36/35/65 34/33/65 81/136/65 82/112/65
f 54/53/66 52/51/66 90/137/66 91/114/66
f 97/119/67 98/118/67 104/139/67 103/140/67
f 100/141/68 101/142/68 107/143/68 106/144/68
f 99/129/69 97/119/69 103/140/69 105/145/69
f 102/110/70 100/141/70 106/144/70 108/111/70
f 87/82/71 88/81/71 106/146/71 107/147/71
f 74/95/72 75/94/72 105/148/72 103/123/72
f 50/49/73 48/47/73 100/141/73 102/110/73
f 18/17/74 73/138/74 104/139/74 98/118/74
f 88/81/75 89/80/75 108/149/75 106/146/75
f 48/47/76 46/45/76 101/142/76 100/141/76
f 46/45/77 87/106/77 107/143/77 101/142/77
f 75/131/78 22/21/78 99/129/78 105/145/78
f 123/150/79 124/151/79 156/152/79 155/153/79
f 43/44/80 45/46/80 131/154/80 130/155/80
f 61/62/81 63/66/81 140/156/81 139/157/81
f 17/18/82 19/20/82 118/158/82 117/159/82
f 35/36/83 37/38/83 127/160/83 126/161/83
f 53/54/84 55/56/84 136/162/84 135/163/84
f 9/10/85 11/12/85 114/164/85 113/165/85
f 27/28/86 29/30/86 123/150/86 122/69/86
f 45/46/87 47/48/87 132/166/87 131/154/87
f 1/1/88 3/4/88 110/167/88 109/168/88
f 63/66/89 1/68/89 109/169/89 140/156/89
f 19/20/90 21/22/90 119/170/90 118/158/90
f 37/38/91 39/40/91 128/171/91 127/160/91
f 55/56/92 57/58/92 137/172/92 136/162/92
f 11/12/93 13/14/93 115/173/93 114/164/93
f 29/30/94 31/32/94 124/151/94 123/150/94
f 47/48/95 49/50/95 133/174/95 132/166/95
f 3/4/96 5/6/96 111/175/96 110/167/96
f 21/22/97 23/24/97 120/176/97 119/170/97
f 39/40/98 41/42/98 129/177/98 128/171/98
f 57/58/99 59/60/99 138/178/99 137/172/99
f 13/14/100 15/16/100 116/179/100 115/173/100
f 31/32/101 33/34/101 125/180/101 124/151/101
f 49/50/102 51/52/102 134/181/102 133/174/102
f 5/6/103 7/8/103 112/182/103 111/175/103
f 23/24/104 25/26/104 121/70/104 120/176/104
f 41/42/105 43/44/105 130/155/105 129/177/105
f 59/60/106 61/62/106 139/157/106 138/178/106
f 15/16/107 17/18/107 117/159/107 116/179/107
f 33/34/108 35/36/108 126/161/108 125/180/108
f 51/52/109 53/54/109 135/163/109 134/181/109
f 7/8/110 9/10/110 113/165/110 112/182/110
f 158/183/111 159/184/111 191/185/111 190/186/111
f 110/167/112 111/175/112 143/187/112 142/188/112
f 137/172/113 138/178/113 170/189/113 169/190/113
f 124/151/114 125/180/114 157/191/114 156/152/114
f 111/175/115 112/182/115 144/192/115 143/187/115
f 138/178/116 139/157/116 171/193/116 170/189/116
f 125/180/117 126/161/117 158/183/117 157/191/117
f 112/182/118 113/165/118 145/194/118 144/192/118
f 139/157/119 140/156/119 172/195/119 171/193/119
f 126/161/120 127/160/120 159/184/120 158/183/120
f 113/165/121 114/164/121 146/196/121 145/194/121
f 140/156/122 109/169/122 141/197/122 172/195/122
f 127/160/123 128/171/123 160/198/123 159/184/123
f 114/164/124 115/173/124 147/199/124 146/196/124
f 128/171/125 129/177/125 161/200/125 160/198/125
f 115/173/126 116/179/126 148/201/126 147/199/126
f 129/177/127 130/155/127 162/202/127 161/200/127
f 116/179/128 117/159/128 149/203/128 148/201/128
f 130/155/129 131/154/129 163/204/129 162/202/129
f 117/159/130 118/158/130 150/205/130 149/203/130
f 131/154/131 132/166/131 164/206/131 163/204/131
f 118/158/132 119/170/132 151/207/132 150/205/132
f 132/166/133 133/174/133 165/208/133 164/206/133
f 119/170/134 120/176/134 152/209/134 151/207/134
f 133/174/135 134/181/135 166/210/135 165/208/135
f 120/176/136 121/70/136 153/211/136 152/209/136
f 134/181/137 135/163/137 167/212/137 166/210/137
f 121/70/138 122/69/138 154/213/138 153/211/138
f 135/163/139 136/162/139 168/214/139 167/212/139
f 122/69/140 123/150/140 155/153/140 154/213/140
f 109/168/141 110/167/141 142/188/141 141/215/141
f 136/162/142 137/172/142 169/190/142 168/214/142
f 173/216/143 174/217/143 175/218/143 176/219/143 177/220/143 178/221/143 179/222/143 180/223/143 181/224/143 182/225/143 183/226/143 184/227/143 185/228/143 186/229/143 187/230/143 188/231/143 189/232/143 190/233/143 191/234/143 192/235/143 193/236/143 194/237/143 195/238/143 196/239/143 197/240/143 198/241/143 199/242/143 200/243/143 201/244/143 202/245/143 203/246/143 204/247/143
f 145/194/144 146/196/144 178/248/144 177/249/144
f 172/195/145 141/197/145 173/250/145 204/251/145
f 159/184/146 160/198/146 192/252/146 191/185/146
f 146/196/147 147/199/147 179/253/147 178/248/147
f 160/198/148 161/200/148 193/254/148 192/252/148
f 147/199/149 148/201/149 180/255/149 179/253/149
f 161/200/150 162/202/150 194/256/150 193/254/150
f 148/201/151 149/203/151 181/257/151 180/255/151
f 162/202/152 163/204/152 195/258/152 194/256/152
f 149/203/153 150/205/153 182/259/153 181/257/153
f 163/204/154 164/206/154 196/260/154 195/258/154
f 150/205/155 151/207/155 183/261/155 182/259/155
f 164/206/156 165/208/156 197/262/156 196/260/156
f 151/207/157 152/209/157 184/263/157 183/261/157
f 165/208/158 166/210/158 198/264/158 197/262/158
f 152/209/159 153/211/159 185/265/159 184/263/159
f 166/210/160 167/212/160 199/266/160 198/264/160
f 153/211/161 154/213/161 186/267/161 185/265/161
f 167/212/162 168/214/162 200/268/162 199/266/162
f 154/213/163 155/153/163 187/269/163 186/267/163
f 141/215/164 142/188/164 174/270/164 173/271/164
f 168/214/165 169/190/165 201/272/165 200/268/165
f 155/153/166 156/152/166 188/273/166 187/269/166
f 142/188/167 143/187/167 175/274/167 174/270/167
f 169/190/168 170/189/168 202/275/168 201/272/168
f 156/152/169 157/191/169 189/276/169 188/273/169
f 143/187/170 144/192/170 176/277/170 175/274/170
f 170/189/171 171/193/171 203/278/171 202/275/171
f 157/191/172 158/183/172 190/186/172 189/276/172
f 144/192/173 145/194/173 177/249/173 176/277/173
f 171/193/174 172/195/174 204/251/174 203/278/174
