# Blender v2.80 (sub 45) OBJ File: 'Bullet.blend'
# www.blender.org
mtllib Bullet.mtl
o Cube
v 0.094923 0.536818 -0.094923
v 1.000000 -1.000000 -1.000000
v 0.094923 0.536818 0.094923
v 1.000000 -1.000000 1.000000
v -0.094923 0.536818 -0.094923
v -1.000000 -1.000000 -1.000000
v -0.094923 0.536818 0.094923
v -1.000000 -1.000000 1.000000
v 0.292453 0.425174 -0.292453
v 0.535345 0.157502 -0.535345
v 0.820524 -0.324055 -0.820524
v -0.820524 -0.324055 0.820524
v -0.535345 0.157502 0.535345
v -0.292453 0.425174 0.292453
v 0.292453 0.425174 0.292453
v 0.535345 0.157502 0.535345
v 0.820524 -0.324055 0.820524
v -0.292453 0.425174 -0.292453
v -0.535345 0.157502 -0.535345
v -0.820524 -0.324055 -0.820524
vt 0.375000 0.000000
vt 0.625000 0.000000
vt 0.625000 0.250000
vt 0.375000 0.250000
vt 0.573276 0.250000
vt 0.625000 0.250000
vt 0.625000 0.500000
vt 0.573276 0.500000
vt 0.625000 0.750000
vt 0.573276 0.750000
vt 0.375000 0.750000
vt 0.625000 0.750000
vt 0.625000 1.000000
vt 0.375000 1.000000
vt 0.323276 0.500000
vt 0.375000 0.500000
vt 0.375000 0.750000
vt 0.323276 0.750000
vt 0.823276 0.500000
vt 0.875000 0.500000
vt 0.875000 0.750000
vt 0.823276 0.750000
vt 0.625000 0.500000
vt 0.698276 0.500000
vt 0.698276 0.750000
vt 0.760776 0.500000
vt 0.760776 0.750000
vt 0.125000 0.500000
vt 0.198276 0.500000
vt 0.198276 0.750000
vt 0.125000 0.750000
vt 0.260776 0.500000
vt 0.260776 0.750000
vt 0.375000 0.500000
vt 0.448276 0.500000
vt 0.448276 0.750000
vt 0.510776 0.500000
vt 0.510776 0.750000
vt 0.375000 0.250000
vt 0.448276 0.250000
vt 0.510776 0.250000
vn 0.0000 1.0000 0.0000
vn 0.0000 0.8706 0.4920
vn -0.4920 0.8706 0.0000
vn 0.0000 -1.0000 0.0000
vn 0.4920 0.8706 0.0000
vn 0.0000 0.8706 -0.4920
vn 0.0000 0.2566 -0.9665
vn 0.0000 0.5096 -0.8604
vn 0.0000 0.6720 -0.7406
vn 0.9665 0.2566 0.0000
vn 0.8604 0.5096 0.0000
vn 0.7406 0.6720 0.0000
vn -0.9665 0.2566 0.0000
vn -0.8604 0.5096 0.0000
vn -0.7406 0.6720 0.0000
vn 0.0000 0.2566 0.9665
vn 0.0000 0.5096 0.8604
vn 0.0000 0.6720 0.7406
usemtl Material
s off
f 1/1/1 5/2/1 7/3/1 3/4/1
f 15/5/2 3/6/2 7/7/2 14/8/2
f 14/8/3 7/7/3 5/9/3 18/10/3
f 6/11/4 2/12/4 4/13/4 8/14/4
f 9/15/5 1/16/5 3/17/5 15/18/5
f 18/19/6 5/20/6 1/21/6 9/22/6
f 6/23/7 20/24/7 11/25/7 2/12/7
f 20/24/8 19/26/8 10/27/8 11/25/8
f 19/26/9 18/19/9 9/22/9 10/27/9
f 2/28/10 11/29/10 17/30/10 4/31/10
f 11/29/11 10/32/11 16/33/11 17/30/11
f 10/32/12 9/15/12 15/18/12 16/33/12
f 8/34/13 12/35/13 20/36/13 6/11/13
f 12/35/14 13/37/14 19/38/14 20/36/14
f 13/37/15 14/8/15 18/10/15 19/38/15
f 4/39/16 17/40/16 12/35/16 8/34/16
f 17/40/17 16/41/17 13/37/17 12/35/17
f 16/41/18 15/5/18 14/8/18 13/37/18
